<svg xmlns="http://www.w3.org/2000/svg" xmlns:xlink="http://www.w3.org/1999/xlink" aria-hidden="true" role="img" class="iconify iconify--logos" width="31.88" height="32" preserveAspectRatio="xMidYMid meet" viewBox="0 0 256 257"><defs><linearGradient id="IconifyId1813088fe1fbc01fb466" x1="-.828%" x2="57.636%" y1="7.652%" y2="78.411%"><stop offset="0%" stop-color="#41D1FF"></stop><stop offset="100%" stop-color="#BD34A2"></stop></linearGradient><linearGradient id="IconifyId1813088fe1fbc01fb467" x1="43.376%" x2="50.316%" y1="2.242%" y2="89.03%"><stop offset="0%" stop-color="#FFEA83"></stop><stop offset="8.333%" stop-color="#FFDD35"></stop><stop offset="100%" stop-color="#FFA800"></stop></linearGradient></defs><path fill="url(#IconifyId1813088fe1fbc01fb466)" d="M255.153 37.938L134.897 252.976c-2.483 4.44-8.862 4.466-11.382.048L0 37.938l130.77 195.936a8.447 8.447 0 0 0 15.076 0l130.353-195.936Z"></path><path fill="url(#IconifyId1813088fe1fbc01fb467)" d="M189.634 27.538a16.454 16.454 0 0 1-7.62 4.281l-85.89 24.104a8.268 8.268 0 0 0-5.505 5.509l-24.065 85.995a16.512 16.512 0 0 1-4.293 7.646L0 37.938l130.77 195.936a8.447 8.447 0 0 0 15.076 0l130.353-195.936z"></path></svg>
